<svg width="19" height="15" viewBox="0 0 19 15" fill="none" xmlns="http://www.w3.org/2000/svg">
<path d="M18.2266 14.5V10.75C18.2266 9.64323 18.0182 8.47786 17.6016 7.2539C17.1849 6.02995 16.6055 4.85807 15.8633 3.73828C15.1211 2.61849 14.2487 1.66146 13.2461 0.867188L10.3555 2.9375C11.1497 4.09635 11.8268 5.30729 12.3867 6.57031C12.9466 7.83333 13.2266 9.20703 13.2266 10.6914V14.5H18.2266ZM8.26562 14.5V10.75C8.26562 9.64323 8.05729 8.47786 7.64062 7.2539C7.22396 6.02995 6.64453 4.85807 5.90234 3.73828C5.16016 2.61849 4.28776 1.66146 3.28515 0.867188L0.39453 2.9375C1.1888 4.09635 1.86588 5.30729 2.42578 6.57031C2.98568 7.83333 3.26562 9.20703 3.26562 10.6914V14.5H8.26562Z" fill="#2AB691"/>
</svg>
